<svg width="580" height="400" xmlns="http://www.w3.org/2000/svg">
 <!-- Created with Method Draw - http://github.com/duopixel/Method-Draw/ -->

 <g>
  <title>Layer 1</title>
  <path id="svg_2" stroke-width="1.5" stroke="#26C485" fill="#fff"/>
  <g stroke="null" id="svg_19">
   <g id="svg_6" fill="#26C485" transform="matrix(0.057767083999206076,0,0,-0.057767083999206076,-5459.764489631544,-3478.9421344746283) ">
    <path stroke="null" id="svg_7" d="m98211.270264,-61974.624756c-90,-23 -175,-90 -219,-172c-19,-36 -23,-58 -23,-143c0,-87 3,-106 25,-148c30,-60 96,-122 158,-150c73,-32 191,-35 267,-6c82,31 165,113 190,189c72,212 -68,422 -291,435c-38,2 -86,0 -107,-5z"/>
    <path stroke="null" id="svg_8" d="m99025.270264,-61974.624756c-100,-21 -205,-117 -236,-215c-40,-129 0,-268 102,-351c88,-72 103,-74 549,-74c267,0 401,-4 417,-11c50,-23 61,-91 23,-136l-24,-28l-1459,-5l-1458,-5l-49,-24c-197,-97 -243,-364 -89,-518c22,-22 62,-50 89,-64l49,-24l1150,-5c1235,-5 1185,-3 1205,-56c15,-39 12,-61 -14,-91l-24,-28l-684,-5l-683,-5l-50,-27c-66,-35 -119,-89 -153,-157c-23,-47 -27,-68 -26,-136c0,-66 5,-90 28,-137c33,-67 97,-130 164,-161l47,-22l1120,0c616,0 1323,2 1570,5c429,5 454,6 535,28c46,13 93,29 105,35c11,6 22,12 25,12c25,3 98,39 94,46c-3,5 3,6 12,2c13,-5 15,-3 9,7c-5,9 -4,11 4,6c14,-9 83,32 76,44c-3,5 0,12 6,16c8,4 9,3 5,-4c-13,-21 9,-13 53,19c26,20 40,37 37,46c-4,10 -1,13 12,9c12,-4 29,5 52,29c19,19 30,35 26,35c-5,0 -19,-12 -32,-26c-13,-14 -29,-22 -34,-19c-6,4 -16,2 -23,-3c-8,-7 -18,-6 -32,5c-17,14 -18,15 -2,9c10,-3 28,-4 40,-1l22,6l-3,805c-2,602 0,804 9,799c6,-4 15,-1 20,6c8,12 10,12 18,0c5,-7 13,-11 18,-8c14,8 34,-38 27,-60c-5,-15 -4,-15 4,-3c9,12 14,12 31,-4c12,-11 21,-17 21,-14c0,12 -65,86 -106,120c-25,20 -40,39 -34,43c16,10 0,29 -60,74c-55,42 -77,51 -64,29c4,-8 3,-10 -2,-5c-5,5 -9,14 -9,20c0,15 -137,88 -158,83c-9,-2 -15,-1 -12,4c3,4 -2,11 -11,14c-10,4 -13,2 -8,-7c4,-6 -1,-5 -12,4c-33,27 -145,60 -244,73c-82,10 -1933,16 -1979,6zm2477,-213c8,-9 8,-17 0,-27c-8,-12 -9,-12 -4,2c3,10 -2,22 -12,27c-9,6 -12,11 -6,11c6,0 16,-6 22,-13zm73,-63c13,-17 13,-17 -9,-2c-13,9 -32,14 -43,11c-22,-6 -25,-19 -6,-26c9,-4 9,-6 0,-6c-22,-2 -25,20 -7,38c21,20 40,15 65,-15zm-16,-14c3,-5 2,-10 -4,-10c-5,0 -13,5 -16,10c-3,6 -2,10 4,10c5,0 13,-4 16,-10zm35,-51c0,-5 -4,-9 -10,-9c-5,0 -10,7 -10,16c0,8 5,12 10,9c6,-3 10,-10 10,-16zm-62,-1678c11,-6 10,-11 -3,-25c-21,-21 -32,-21 -14,0c10,13 10,17 -2,25c-8,5 -9,9 -4,9c6,0 16,-4 23,-9z"/>
    <path stroke="null" id="svg_9" d="m101664.270264,-62329.624756c14,-16 26,-32 28,-34c1,-2 4,-2 7,1c3,2 -10,18 -28,34l-32,29l25,-30z"/>
    <path stroke="null" id="svg_10" d="m101704.270264,-62378.624756c0,-2 8,-10 18,-17c15,-13 16,-12 3,4c-13,16 -21,21 -21,13z"/>
    <path stroke="null" id="svg_11" d="m101741.270264,-62497.624756c-3,-8 1,-14 8,-14c7,0 11,6 8,14c-3,7 -6,13 -8,13c-2,0 -5,-6 -8,-13z"/>
    <path stroke="null" id="svg_12" d="m101834.270264,-62561.624756c0,-6 8,-17 18,-24c16,-13 16,-13 2,6c-8,11 -16,22 -17,24c-2,2 -3,0 -3,-6z"/>
    <path stroke="null" id="svg_13" d="m96574.270264,-63630.624756c-68,-25 -127,-70 -165,-127c-89,-135 -68,-307 50,-416c93,-85 96,-86 460,-86c368,0 388,3 474,81c74,67 106,138 106,239c0,71 -4,88 -33,148c-34,69 -87,120 -162,155c-53,25 -663,29 -730,6z"/>
    <path stroke="null" id="svg_14" d="m101754.270264,-63748.624756c0,-2 8,-10 18,-17c15,-13 16,-12 3,4c-13,16 -21,21 -21,13z"/>
    <path stroke="null" id="svg_15" d="m101669.270264,-63805.624756c-11,-16 -1,-19 13,-3c7,8 8,14 3,14c-5,0 -13,-5 -16,-11z"/>
    <path stroke="null" id="svg_16" d="m101686.270264,-63827.624756c-12,-13 -22,-27 -22,-33c0,-5 12,4 26,20c21,22 29,25 36,14c8,-11 9,-10 6,1c-7,24 -23,23 -46,-2z"/>
    <path stroke="null" id="svg_17" d="m101673.270264,-63891.624756l-24,-28l28,24c15,14 27,26 27,28c0,8 -8,1 -31,-24z"/>
    <path stroke="null" id="svg_18" d="m101602.270264,-63901.624756c-10,-2 -18,-12 -18,-21c0,-12 3,-13 12,-4c7,7 20,12 30,12c10,0 18,5 18,10c0,10 -12,11 -42,3z"/>
   </g>
  </g>
  <ellipse stroke="#26C485" ry="63.499997" rx="63.499997" id="svg_20" cy="166.999998" cx="371.999997" stroke-width="1.5" fill="#26C485"/>
  <ellipse ry="18.320585" rx="18.320585" id="svg_24" cy="119.465482" cx="218.472967" stroke-opacity="null" stroke-width="1.5" stroke="#26C485" fill="#26C485"/>
 </g>
</svg>


