<svg id="zombieOutline"  viewBox="0 0 511 511.99998" xmlns="http://www.w3.org/2000/svg">
  <path d="m311.945312 39.4375c42.152344 14.039062 73.398438 49.847656 81.546876 93.453125.6875 3.660156 3.882812 6.214844 7.476562 6.214844.460938 0 .933594-.042969 1.40625-.132813 4.132812-.769531 6.855469-4.746094 6.082031-8.878906-9.164062-49.039062-44.300781-89.3125-91.699219-105.097656-3.992187-1.328125-8.296874.828125-9.628906 4.816406-1.328125 3.988281.828125 8.296875 4.816406 9.625zm0 0" />
  <path d="m505.210938 273.761719c0-38.574219-29.425782-70.410157-67.011719-74.234375v-43.269532c0-2.308593-1.046875-4.492187-2.847657-5.9375-1.804687-1.445312-4.164062-1.996093-6.417968-1.492187-10.367188 2.300781-21.078125 3.46875-31.832032 3.46875-38.832031 0-75.425781-15.039063-103.035156-42.34375-20.988281-20.761719-34.941406-46.785156-40.621094-75.121094 11.257813-1.828125 22.855469-2.117187 34.140626-.804687 4.175781.484375 7.957031-2.503906 8.441406-6.679688.488281-4.175781-2.503906-7.957031-6.679688-8.441406-12.601562-1.46875-25.546875-1.179688-38.117187.839844-.378907-4.042969-.605469-8.117188-.652344-12.222656-.050781-4.167969-3.445313-7.523438-7.613281-7.523438h-44.546875c-72.183594 0-130.914063 58.726562-130.914063 130.914062v68.617188c-37.582031 3.824219-67.003906 35.65625-67.003906 74.230469 0 39.003906 30.085938 71.09375 68.269531 74.332031 2.71875 23.359375 9.835938 46.101562 21.007813 66.726562 2.003906 3.695313 6.621094 5.070313 10.320312 3.066407 3.699219-2.003907 5.070313-6.625 3.066406-10.320313-13.367187-24.675781-20.433593-52.65625-20.433593-80.914062v-195.738282c0-5.835937.4375-11.566406 1.273437-17.171874 7.472656 4.925781 16.277344 7.628906 25.5 7.628906 25.589844 0 46.40625-20.816406 46.40625-46.402344 0-16.710938-8.746094-31.570312-22.402344-39.769531 18.519532-12.601563 40.867188-19.972657 64.910157-19.972657h37.195312c2.296875 39.960938 19.085938 77.203126 47.746094 105.550782 30.476563 30.144531 70.871094 46.746094 113.742187 46.746094 8.6875 0 17.355469-.691407 25.871094-2.0625v159.488281c0 94.695312-76.277344 171.777343-170.035156 171.824219-.03125 0-.058594 0-.089844 0-27.222656 0-53.234375-6.234376-77.300781-18.53125-22.988281-11.75-43.351563-28.910157-58.886719-49.621094-2.519531-3.363282-7.289062-4.046875-10.65625-1.523438-3.363281 2.523438-4.042968 7.292969-1.523437 10.65625 16.917969 22.558594 39.097656 41.246094 64.140625 54.042969 26.234375 13.40625 54.566406 20.203125 84.222656 20.203125h.101562c94.378907-.046875 172.496094-71.6875 183.832032-163.894531 38.257812-3.15625 68.433594-35.28125 68.433594-74.34375zm-489.484376 0c0-30.167969 22.613282-55.136719 51.777344-58.886719v37.847656c-.96875-.546875-1.898437-.988281-2.753906-1.34375-10.589844-4.382812-24.078125-1.355468-32.796875 7.363282-2.976563 2.972656-2.976563 7.792968 0 10.765624 2.972656 2.972657 7.792969 2.972657 10.765625 0 4.414062-4.414062 11.226562-6.121093 16.203125-4.0625 5.527344 2.289063 8.574219 9.21875 8.582031 19.507813v41.699219c0 2.007812.039063 4.011718.101563 6.011718-29.214844-3.703124-51.878907-28.695312-51.878907-58.902343zm124.957032-198.792969c0 17.191406-13.984375 31.179688-31.179688 31.179688-8.238281 0-15.988281-3.199219-21.78125-8.871094 6.097656-20.03125 17.496094-37.777344 32.554688-51.597656 12.1875 4.449218 20.40625 15.996093 20.40625 29.289062zm297.34375 257.707031c.105468-2.566406.171875-5.136719.171875-7.726562v-39.84375c0-.03125.003906-.066407.003906-.097657 0-10.320312 3.046875-17.269531 8.582031-19.5625 4.976563-2.058593 11.792969-.351562 16.207032 4.0625 2.972656 2.972657 7.792968 2.972657 10.765624 0 2.972657-2.972656 2.972657-7.792968 0-10.765624-8.722656-8.722657-22.210937-11.75-32.796874-7.363282-.859376.355469-1.789063.800782-2.761719 1.347656v-37.855468c29.167969 3.75 51.785156 28.71875 51.785156 58.890625 0 30.230469-22.707031 55.238281-51.957031 58.914062zm0 0" />
  <path d="m284.367188 287.917969c0 6.371093 2.480468 12.359375 6.988281 16.867187 4.503906 4.503906 10.492187 6.984375 16.863281 6.984375s12.363281-2.480469 16.867188-6.984375l8.972656-8.972656 8.972656 8.972656c9.296875 9.296875 24.429688 9.296875 33.730469 0 9.300781-9.300781 9.300781-24.433594 0-33.734375l-8.972657-8.972656 8.972657-8.96875c9.300781-9.300781 9.300781-24.433594 0-33.734375-9.300781-9.296875-24.433594-9.296875-33.730469 0h-.003906l-8.96875 8.972656-8.972656-8.96875c-4.503907-4.507812-10.496094-6.988281-16.867188-6.988281s-12.359375 2.480469-16.863281 6.988281c-4.503907 4.503906-6.988281 10.492188-6.988281 16.863282 0 6.371093 2.480468 12.363281 6.988281 16.867187l8.96875 8.972656-8.96875 8.96875c-4.507813 4.503907-6.988281 10.496094-6.988281 16.867188zm17.753906-6.101563 14.351562-14.355468c2.976563-2.972657 2.976563-7.789063 0-10.761719l-14.351562-14.355469c-1.628906-1.628906-2.527344-3.796875-2.527344-6.101562 0-2.304688.898438-4.46875 2.527344-6.097657 1.628906-1.628906 3.792968-2.527343 6.097656-2.527343 2.308594 0 4.472656.894531 6.101562 2.527343l14.355469 14.351563c1.429688 1.429687 3.363281 2.230468 5.382813 2.230468 2.019531 0 3.953125-.800781 5.382812-2.230468l14.355469-14.351563c3.363281-3.363281 8.835937-3.367187 12.199219 0 3.363281 3.363281 3.363281 8.835938 0 12.199219l-14.355469 14.355469c-1.425781 1.425781-2.226563 3.363281-2.226563 5.382812 0 2.015625.800782 3.953125 2.226563 5.382813l14.355469 14.351562c3.363281 3.363282 3.363281 8.839844 0 12.203125-3.359375 3.363281-8.835938 3.363281-12.199219 0l-14.355469-14.355469c-1.425781-1.425781-3.363281-2.230468-5.382812-2.230468-2.019532 0-3.953125.804687-5.382813 2.230468l-14.355469 14.355469c-1.628906 1.628907-3.792968 2.527344-6.101562 2.527344-2.304688 0-4.46875-.898437-6.097656-2.527344-1.628906-1.628906-2.527344-3.796875-2.527344-6.101562 0-2.304688.898438-4.472657 2.527344-6.101563zm0 0" />
  <path d="m214.347656 219.375c-9.296875-9.296875-24.429687-9.296875-33.730468 0l-8.972657 8.972656-8.972656-8.96875c-4.503906-4.507812-10.492187-6.988281-16.863281-6.988281s-12.363282 2.480469-16.867188 6.988281c-4.503906 4.503906-6.984375 10.492188-6.984375 16.863282 0 6.371093 2.480469 12.363281 6.984375 16.867187l8.972656 8.972656-8.972656 8.96875c-4.503906 4.507813-6.984375 10.496094-6.984375 16.867188 0 6.371093 2.480469 12.363281 6.984375 16.867187s10.496094 6.984375 16.867188 6.984375 12.359375-2.480469 16.863281-6.984375l8.972656-8.972656 8.972657 8.972656c9.300781 9.296875 24.433593 9.296875 33.730468 0 9.300782-9.300781 9.300782-24.433594 0-33.734375l-8.972656-8.96875 8.972656-8.972656c9.300782-9.300781 9.300782-24.433594 0-33.734375zm-10.765625 22.96875-14.351562 14.351562c-1.429688 1.429688-2.230469 3.363282-2.230469 5.382813s.800781 3.957031 2.230469 5.382813l14.351562 14.355468c3.363281 3.363282 3.363281 8.835938 0 12.199219-3.359375 3.363281-8.835937 3.367187-12.199219 0l-14.355468-14.351563c-1.425782-1.429687-3.363282-2.230468-5.382813-2.230468s-3.953125.800781-5.382812 2.230468l-14.355469 14.351563c-1.628906 1.628906-3.792969 2.527344-6.101562 2.527344-2.304688 0-4.46875-.898438-6.097657-2.527344-1.628906-1.628906-2.527343-3.796875-2.527343-6.097656 0-2.304688.898437-4.472657 2.527343-6.101563l14.351563-14.355468c2.976562-2.972657 2.976562-7.789063 0-10.761719l-14.351563-14.355469c-1.628906-1.628906-2.527343-3.796875-2.527343-6.101562 0-2.304688.898437-4.46875 2.527343-6.097657 1.628907-1.628906 3.792969-2.527343 6.097657-2.527343 2.308593 0 4.472656.894531 6.101562 2.527343l14.355469 14.351563c1.429687 1.429687 3.363281 2.230468 5.382812 2.230468s3.953125-.800781 5.382813-2.230468l14.355468-14.351563c3.363282-3.363281 8.835938-3.367187 12.199219 0 3.367188 3.363281 3.367188 8.835938 0 12.199219zm0 0" />
  <path d="m161.058594 395.613281v16.828125c0 4.207032 3.40625 7.613282 7.609375 7.613282h106.128906v26.753906c0 15.390625 12.519531 27.910156 27.910156 27.910156s27.914063-12.519531 27.914063-27.910156v-26.753906h6.414062c4.203125 0 7.613282-3.40625 7.613282-7.613282v-16.828125c0-32.496093-26.4375-58.933593-58.933594-58.933593h-65.726563c-32.496093 0-58.929687 26.4375-58.929687 58.933593zm35.832031 9.21875c12.695313-14.085937 33.316406-22.699219 55.960937-22.699219 22.644532 0 43.265626 8.613282 55.960938 22.699219zm118.503906 41.976563c0 6.996094-5.691406 12.6875-12.6875 12.6875-6.996093 0-12.6875-5.691406-12.6875-12.6875v-26.753906h25.375zm14.027344-51.195313v9.21875h-1.683594c-14.179687-23.179687-42.996093-37.925781-74.886719-37.925781-31.890624 0-60.707031 14.746094-74.886718 37.925781h-1.683594v-9.21875c0-24.101562 19.605469-43.707031 43.707031-43.707031h65.726563c24.101562 0 43.707031 19.605469 43.707031 43.707031zm0 0" />
  <path d="m111.625 156.457031c0 17.898438 14.558594 32.457031 32.457031 32.457031 17.898438 0 32.457031-14.558593 32.457031-32.457031 0-17.898437-14.558593-32.457031-32.457031-32.457031-17.898437 0-32.457031 14.5625-32.457031 32.457031zm49.691406 0c0 9.503907-7.730468 17.234375-17.234375 17.234375-9.503906 0-17.230469-7.730468-17.230469-17.234375 0-9.503906 7.726563-17.230469 17.230469-17.230469 9.503907 0 17.234375 7.730469 17.234375 17.230469zm0 0" />
  <path d="m191.40625 71.050781c-15.941406 0-28.910156 12.96875-28.910156 28.910157 0 15.9375 12.96875 28.90625 28.910156 28.90625 15.9375 0 28.90625-12.96875 28.90625-28.90625 0-15.941407-12.96875-28.910157-28.90625-28.910157zm0 42.59375c-7.546875 0-13.683594-6.140625-13.683594-13.6875 0-7.542969 6.136719-13.683593 13.683594-13.683593 7.542969 0 13.679688 6.140624 13.679688 13.683593 0 7.546875-6.136719 13.6875-13.679688 13.6875zm0 0" />
</svg>
